<svg xmlns="http://www.w3.org/2000/svg" viewBox="0 0 400 200" width="400" height="200"><path fill="#de2910" d="M0 0h400v200H0z"/><path d="M200 99.97C164.9 85.14 180.45 39.44 214 41.74c-6.8 3.5-7.77 10-3.9 16.03 4.34 6.75-.4 17.62-6.27 20.26-9.64 4.34-11.58 15.92-3.86 21.94z" fill="#fff"/><path d="M198.1 66.97l-1.97 3.1-.7-3.6-3.56-.92 3.2-1.8-.22-3.67 2.7 2.5 3.42-1.35-1.54 3.34 2.33 2.84zm2.1 32.63c-4.24-2.18-7.67-6.72-9.16-12.14a23.08 23.08 0 0 1 2.69-18.35l-.74-.46a23.96 23.96 0 0 0-2.8 19.04c1.58 5.74 5.07 10.37 9.6 12.7z" fill="#de2910"/><path d="M200.02 99.98c3.26-37.95 51.53-37.28 59.7-4.66-5.42-5.38-11.9-4.3-16.45 1.25-5.08 6.22-16.88 5.06-21.2.3-7.1-7.83-18.7-6.1-22.06 3.1z" fill="#fff"/><path d="M230.82 87.98l-3.56-.92 3.2-1.8-.23-3.67 2.7 2.5 3.42-1.35-1.54 3.33 2.34 2.83-3.65-.43-1.98 3.1zm-30.37 12.07c.76-4.7 4.02-9.37 8.72-12.46a23.08 23.08 0 0 1 18.28-3.11l.2-.84a23.96 23.96 0 0 0-18.97 3.23c-4.97 3.27-8.3 8.03-9.1 13.05z" fill="#de2910"/><path d="M200.03 100.02c37.1-8.63 51.38 37.5 22.88 55.35 3.44-6.8.4-12.66-6.27-15.26-7.48-2.9-10.03-14.5-6.83-20.07 5.25-9.18.01-19.68-9.78-20.02z" fill="#fff"/><path d="M220.96 125.6l-.22-3.67 2.7 2.5 3.42-1.35-1.54 3.34 2.34 2.83-3.65-.44-1.97 3.1-.72-3.6-3.55-.92zm-20.86-25.16c4.7-.73 10.15.93 14.55 4.44a23.08 23.08 0 0 1 8.6 16.43l.87-.06a23.96 23.96 0 0 0-8.93-17.05c-4.65-3.72-10.2-5.4-15.22-4.62z" fill="#de2910"/><path d="M200 100.03c19.67 32.62-19.77 60.45-45.57 38.87 7.54 1.17 12.17-3.52 12.57-10.68.46-8 10.68-14.02 16.98-12.7 10.35 2.16 18.72-6.07 16.02-15.5z" fill="#fff"/><path d="M182.13 127.84l3.42-1.35-1.54 3.34 2.34 2.84-3.65-.43-1.97 3.1-.7-3.6-3.56-.92 3.2-1.8-.22-3.67zm17.47-27.62c2.15 4.26 2.25 9.94.27 15.2a23.08 23.08 0 0 1-12.96 13.26l.32.8a23.96 23.96 0 0 0 13.45-13.76c2.1-5.57 2-11.37-.3-15.9z" fill="#de2910"/><path d="M199.97 100c-24.95 28.8-63.6-.13-51.05-31.33 1.22 7.53 7.1 10.48 14.04 8.66 7.76-2.04 16.63 5.82 17.33 12.22 1.15 10.5 11.56 15.93 19.68 10.45z" fill="#fff"/><path d="M168 91.6l2.34 2.83-3.65-.43-1.97 3.1-.72-3.6-3.56-.92 3.2-1.8-.23-3.67 2.7 2.5 3.42-1.34zm31.66 8.1c-3.38 3.36-8.76 5.2-14.38 4.96a23.08 23.08 0 0 1-16.62-8.23L168 97a23.96 23.96 0 0 0 17.24 8.54c5.95.28 11.43-1.62 15.03-5.2z" fill="#de2910"/></svg>